<svg width="19" height="19" viewBox="0 0 19 19" fill="none" xmlns="http://www.w3.org/2000/svg">
<path d="M17.4166 14.3789C17.4166 14.0433 17.1446 13.7713 16.8091 13.7713C16.5015 13.7713 16.2473 13.9999 16.2071 14.2964L16.2015 14.3789V15.999C16.2015 16.0949 16.1349 16.1752 16.0454 16.1962L15.999 16.2016H14.3789C14.0433 16.2016 13.7713 16.4736 13.7713 16.8091C13.7713 17.1167 13.9999 17.3709 14.2964 17.4111L14.3789 17.4167H15.999C16.7428 17.4167 17.3528 16.8439 17.4119 16.1153L17.4166 15.999V14.3789Z" fill="#4A4A4A"/>
<path d="M2.79288 14.2964C2.75265 13.9999 2.49845 13.7713 2.19087 13.7713C1.85533 13.7713 1.58331 14.0433 1.58331 14.3789V15.999L1.58801 16.1153C1.64715 16.8439 2.25716 17.4167 3.00095 17.4167H4.6211L4.70355 17.4111C5.00009 17.3709 5.22866 17.1167 5.22866 16.8091C5.22866 16.4736 4.95665 16.2016 4.6211 16.2016H3.00095L2.95451 16.1962C2.86504 16.1752 2.79843 16.0949 2.79843 15.999V14.3789L2.79288 14.2964Z" fill="#4A4A4A"/>
<path d="M17.4119 2.8847C17.3528 2.15615 16.7428 1.58334 15.999 1.58334H14.3789L14.2964 1.58888C13.9999 1.62911 13.7713 1.88331 13.7713 2.19089C13.7713 2.52644 14.0433 2.79845 14.3789 2.79845H15.999L16.0454 2.8038C16.1349 2.82479 16.2015 2.9051 16.2015 3.00097V4.62113L16.2071 4.70357C16.2473 5.00012 16.5015 5.22868 16.8091 5.22868C17.1446 5.22868 17.4166 4.95667 17.4166 4.62113V3.00097L17.4119 2.8847Z" fill="#4A4A4A"/>
<path d="M4.70355 1.58888L4.6211 1.58334H3.00095C2.25716 1.58334 1.64715 2.15615 1.58801 2.8847L1.58331 3.00097V4.62113C1.58331 4.95667 1.85533 5.22868 2.19087 5.22868C2.49845 5.22868 2.75265 5.00012 2.79288 4.70357L2.79843 4.62113V3.00097C2.79843 2.9051 2.86504 2.82479 2.95451 2.8038L3.00095 2.79845H4.6211C4.95665 2.79845 5.22866 2.52644 5.22866 2.19089C5.22866 1.88331 5.00009 1.62911 4.70355 1.58888Z" fill="#4A4A4A"/>
<path d="M6.63101 7.58731C6.81291 7.31446 7.18155 7.24073 7.4544 7.42263L9.50004 8.78639L11.5457 7.42263C11.8185 7.24073 12.1872 7.31446 12.3691 7.58731C12.551 7.86015 12.4772 8.22879 12.2044 8.41069L10.0938 9.81776V12.6667C10.0938 12.9946 9.82796 13.2604 9.50004 13.2604C9.17212 13.2604 8.90629 12.9946 8.90629 12.6667V9.81776L6.79569 8.41069C6.52284 8.22879 6.44912 7.86015 6.63101 7.58731Z" fill="#4A4A4A"/>
<path fill-rule="evenodd" clip-rule="evenodd" d="M9.10108 3.50364C9.34758 3.35985 9.65238 3.35985 9.89888 3.50364L14.451 6.15902C14.6942 6.3009 14.8437 6.56128 14.8437 6.84285V12.1572C14.8437 12.4387 14.6942 12.6991 14.451 12.841L9.89888 15.4964C9.65238 15.6402 9.34758 15.6402 9.10108 15.4964L4.549 12.841C4.30578 12.6991 4.15623 12.4387 4.15623 12.1572V6.84285C4.15623 6.56128 4.30579 6.3009 4.549 6.15902L9.10108 3.50364ZM9.49998 4.64572L5.34373 7.0702V11.9298L9.49998 14.3543L13.6562 11.9298V7.0702L9.49998 4.64572Z" fill="#4A4A4A"/>
</svg>
