<svg width="19" height="19" viewBox="0 0 19 19" fill="none" xmlns="http://www.w3.org/2000/svg">
<path d="M4.82196 15.8333L4.64743 15.8297C2.50611 15.74 0.791687 14.0075 0.791687 11.875C0.791687 9.68484 2.60003 7.91666 4.82196 7.91666L4.75002 7.91825V7.7367C4.75002 5.26389 6.91289 3.16666 9.50002 3.16666C12.0559 3.16666 14.1527 5.11272 14.2467 7.56482L14.25 7.7367V7.91666H14.338C16.4806 7.91666 18.2084 9.69378 18.2084 11.875C18.2084 13.9988 16.5704 15.7395 14.5063 15.8297L14.338 15.8333H4.82196ZM14.338 14.25C15.596 14.25 16.625 13.1916 16.625 11.875C16.625 10.6054 15.6682 9.57593 14.4719 9.50401L14.338 9.5H13.5463L13.5025 9.49879C13.4879 9.49959 13.4732 9.5 13.4584 9.5C13.0524 9.5 12.7177 9.19438 12.672 8.80066L12.6667 8.70833V7.7367C12.6667 6.09564 11.257 4.75 9.50002 4.75C7.83046 4.75 6.42383 6.06335 6.33755 7.58848L6.33335 7.7367V8.70833C6.33335 9.11433 6.02774 9.44894 5.63401 9.49467L5.54169 9.5H4.82196L4.67779 9.50404C3.39004 9.57654 2.37502 10.6141 2.37502 11.875C2.37502 13.1826 3.46662 14.25 4.82196 14.25H14.338Z" fill="#4A4A4A"/>
</svg>
