<svg width="19" height="19" viewBox="0 0 19 19" fill="none" xmlns="http://www.w3.org/2000/svg">
<path d="M16.6695 9.85438L16.3044 9.49704L16.6695 9.1397L18.376 7.46959L18.3759 7.46954L18.382 7.46383C18.6011 7.2564 18.4963 6.88386 18.2137 6.81627L18.2136 6.81633L18.2063 6.81446L15.8814 6.22107L15.3834 6.09397L15.5242 5.59965L16.1789 3.30055C16.179 3.30022 16.1791 3.29989 16.1792 3.29955C16.2585 3.01334 15.9807 2.73621 15.6953 2.81549C15.695 2.81556 15.6948 2.81563 15.6945 2.8157L13.3962 3.47068L12.9017 3.61159L12.7747 3.11339L12.1815 0.787712L12.1815 0.787727L12.1797 0.780386C12.1146 0.507742 11.7324 0.400887 11.5328 0.611839L11.5328 0.611868L11.5283 0.616512L9.85877 2.33626L9.50002 2.7058L9.14127 2.33626L7.47174 0.61655L7.47171 0.616579L7.46727 0.611885C7.26766 0.400883 6.88548 0.507896 6.82035 0.780405L6.82041 0.780418L6.81854 0.78775L6.2254 3.11343L6.09834 3.61163L5.60388 3.47072L3.3055 2.81573C3.30519 2.81565 3.30489 2.81556 3.30458 2.81548C3.01916 2.73633 2.74149 3.01349 2.82087 3.29973C2.82095 3.30001 2.82103 3.3003 2.82111 3.30058L3.47588 5.59969L3.61665 6.094L3.11865 6.22111L0.793728 6.81449L0.793742 6.81455L0.786351 6.81632C0.503784 6.88388 0.398943 7.25641 0.618047 7.46384L0.618094 7.46379L0.624028 7.46959L2.33052 9.13969L2.69565 9.49704L2.33052 9.85438L0.624025 11.5244L0.624073 11.5245L0.618053 11.5302C0.398902 11.7377 0.503747 12.1102 0.78634 12.1778L0.786353 12.1777L0.793694 12.1796L3.11861 12.773L3.61662 12.9001L3.47584 13.3944L2.82108 15.6935C2.82099 15.6938 2.82091 15.6941 2.82083 15.6944C2.74149 15.9806 3.01916 16.2578 3.3046 16.1786C3.3049 16.1785 3.30521 16.1785 3.30551 16.1784L5.60381 15.5234L6.09827 15.3825L6.22533 15.8807L6.81847 18.2064L6.81852 18.2063L6.82028 18.2137C6.88836 18.4985 7.25862 18.6027 7.4672 18.3822L7.46715 18.3821L7.47297 18.3762L9.14256 16.6691L9.50003 16.3036L9.85748 16.6691L11.527 18.3762L11.5271 18.3761L11.5363 18.3859C11.7294 18.5943 12.1118 18.4976 12.1797 18.2137L12.1796 18.2137L12.1815 18.2064L12.7746 15.8807L12.9017 15.3825L13.3962 15.5234L15.6945 16.1784C15.6948 16.1785 15.6951 16.1785 15.6953 16.1786C15.9808 16.2578 16.2585 15.9806 16.1791 15.6944C16.1791 15.6941 16.179 15.6938 16.1789 15.6935L15.5241 13.3944L15.3833 12.9001L15.8814 12.773L18.2063 12.1796L18.2063 12.1795L18.2136 12.1778C18.4962 12.1102 18.6011 11.7377 18.3819 11.5302L18.3818 11.5302L18.3759 11.5244L16.6695 9.85438Z" stroke="#4A4A4A"/>
</svg>
