<?xml version="1.0" encoding="UTF-8" standalone="no" ?>
<!DOCTYPE svg PUBLIC "-//W3C//DTD SVG 1.1//EN" "http://www.w3.org/Graphics/SVG/1.1/DTD/svg11.dtd">
<svg xmlns="http://www.w3.org/2000/svg" xmlns:xlink="http://www.w3.org/1999/xlink" version="1.1" width="1080" height="1080" viewBox="0 0 1080 1080" xml:space="preserve">
<desc>Created with Fabric.js 5.2.4</desc>
<defs>
</defs>
<g transform="matrix(1 0 0 1 540 540)" id="4068b1d1-b766-4b48-9efb-ba7f1e218b99"  >
<rect style="stroke: none; stroke-width: 1; stroke-dasharray: none; stroke-linecap: butt; stroke-dashoffset: 0; stroke-linejoin: miter; stroke-miterlimit: 4; fill: rgb(255,255,255); fill-rule: nonzero; opacity: 1; visibility: hidden;" vector-effect="non-scaling-stroke"  x="-540" y="-540" rx="0" ry="0" width="1080" height="1080" />
</g>
<g transform="matrix(1 0 0 1 540 540)" id="3ed88488-673d-417f-89c0-77f59326b6de"  >
</g>
<g transform="matrix(1.69 0 0 1.69 540 540)"  >
<path style="stroke: none; stroke-width: 1; stroke-dasharray: none; stroke-linecap: butt; stroke-dashoffset: 0; stroke-linejoin: miter; stroke-miterlimit: 4; fill: rgb(0,0,0); fill-rule: nonzero; opacity: 1;"  transform=" translate(-320, -256)" d="M 253.2 80.8 C 245 70.2 232.4 64 219 64 L 216 64 C 193.9 64 176 81.9 176 104 C 176 126.1 193.9 144 216 144 L 256 144 L 301.8 144 L 253.2 80.8 z M 156.2 144 C 148.5 132.6 144.1 118.8 144.1 104 C 144.1 64.2 176.3 32 216.1 32 L 219.1 32 C 242.4 32 264.4 42.8 278.6 61.3 L 320 115.2 L 361.5 61.300000000000004 C 375.7 42.8 397.7 32 421 32 L 424 32 C 463.8 32 496 64.2 496 104 C 496 118.8 491.5 132.6 483.9 144 L 544 144 C 609.1 144.3 640 215.5 640 272 C 640 328.9 615.9 391.2 559 412.7 C 548.5 416.7 536.5 416.9 525.6 414.5 L 400 386.6 L 400 464 C 400 469.5 397.1 474.7 392.4 477.6 C 387.69999999999993 480.50000000000006 381.79999999999995 480.8 376.79999999999995 478.3 L 320 449.9 L 263.2 478.29999999999995 C 258.2 480.79999999999995 252.29999999999998 480.49999999999994 247.6 477.59999999999997 C 242.9 474.7 240 469.49999999999994 240 463.99999999999994 L 240 386.6 L 114.4 414.5 L 107.5 383.3 L 240 353.8 L 240 176 L 216 176 L 96.1 176 C 77.19999999999999 176.1 62.199999999999996 185.9 50.599999999999994 204.1 C 38.5 223.1 32 248.8 32 272 C 32 322.8 53.4 368.1 92.3 382.8 C 95.8 384.1 101.39999999999999 384.6 107.39999999999999 383.3 L 114.3 414.5 C 103.39999999999999 416.9 91.4 416.7 80.9 412.7 C 24.1 391.2 0 328.9 0 272 C 0 215.5 30.9 144.3 96 144 L 156.1 144 z M 400 176 L 400 353.8 L 532.6 383.3 C 538.6 384.6 544.2 384.2 547.7 382.8 C 586.6 368.1 608 322.8 608 272 C 608 248.8 601.5 223.1 589.4 204.1 C 577.8 185.9 562.8 176.1 543.9 176 L 424 176 L 400 176 z M 424 144 C 446.1 144 464 126.1 464 104 C 464 81.9 446.1 64 424 64 L 421 64 C 407.6 64 395 70.2 386.9 80.8 L 338.2 144 L 384 144 L 424 144 z M 336 176 L 304 176 L 272 176 L 272 438.1 L 312.8 417.70000000000005 C 317.3 415.40000000000003 322.6 415.40000000000003 327.1 417.70000000000005 L 368 438.1 L 368 176 L 336 176 z" stroke-linecap="round" />
</g>
</svg>