<?xml version="1.0" encoding="UTF-8" standalone="no" ?>
<!DOCTYPE svg PUBLIC "-//W3C//DTD SVG 1.1//EN" "http://www.w3.org/Graphics/SVG/1.1/DTD/svg11.dtd">
<svg xmlns="http://www.w3.org/2000/svg" xmlns:xlink="http://www.w3.org/1999/xlink" version="1.1" width="1080" height="1080" viewBox="0 0 1080 1080" xml:space="preserve">
<desc>Created with Fabric.js 5.2.4</desc>
<defs>
</defs>
<g transform="matrix(1 0 0 1 540 540)" id="8a69fe86-7d8c-4bb1-9d36-80cfd8a8bc4d"  >
<rect style="stroke: none; stroke-width: 1; stroke-dasharray: none; stroke-linecap: butt; stroke-dashoffset: 0; stroke-linejoin: miter; stroke-miterlimit: 4; fill: rgb(255,255,255); fill-rule: nonzero; opacity: 1; visibility: hidden;" vector-effect="non-scaling-stroke"  x="-540" y="-540" rx="0" ry="0" width="1080" height="1080" />
</g>
<g transform="matrix(1 0 0 1 540 540)" id="15cdea8f-2c5a-4733-80ff-afd1541a1aab"  >
</g>
<g transform="matrix(1.69 0 0 1.69 540 540)"  >
<path style="stroke: none; stroke-width: 1; stroke-dasharray: none; stroke-linecap: butt; stroke-dashoffset: 0; stroke-linejoin: miter; stroke-miterlimit: 4; fill: rgb(0,0,0); fill-rule: nonzero; opacity: 1;"  transform=" translate(-320, -256)" d="M 307.2 66.2 L 47.6 160 L 121.6 186.7 C 131.9 179.79999999999998 143.1 174.1 155 169.6 L 314.4 109.8 C 322.7 106.7 331.9 110.89999999999999 335 119.2 C 338.1 127.50000000000001 333.9 136.7 325.6 139.8 L 166.2 199.6 C 164.7 200.1 163.29999999999998 200.7 161.89999999999998 201.29999999999998 L 307.2 253.79999999999998 C 311.3 255.29999999999998 315.59999999999997 255.99999999999997 320 255.99999999999997 C 324.40000000000003 255.99999999999997 328.7 255.19999999999996 332.8 253.79999999999998 L 592.4 160 L 332.8 66.2 C 328.7 64.7 324.40000000000003 64 320 64 C 315.59999999999997 64 311.3 64.8 307.2 66.2 z M 296.3 283.9 L 126.9 222.7 C 99.4 246 82.1 279.9 80.2 316.9 C 86.10000000000001 330.09999999999997 90.4 344.4 93.60000000000001 358.4 C 100.00000000000001 386 104.30000000000001 424.29999999999995 95.7 467.09999999999997 C 94.8 471.4 92.3 475.09999999999997 88.60000000000001 477.49999999999994 C 84.90000000000002 479.8999999999999 80.4 480.59999999999997 76.2 479.49999999999994 L 12.200000000000003 463.49999999999994 C 7.000000000000003 462.19999999999993 2.8000000000000025 458.3999999999999 1.0000000000000036 453.29999999999995 C -0.7999999999999954 448.2 0.10000000000000353 442.59999999999997 3.3000000000000034 438.4 C 11.900000000000002 426.7 19.300000000000004 413.79999999999995 25.800000000000004 400.79999999999995 C 37.2 377.8 48 348.4 48 320 C 48 319.4 48 318.8 48.1 318.2 C 49.5 277.2 66.1 239.1 93.2 210.5 L 15.8 182.6 C 6.3 179.1 0 170.1 0 160 C 0 149.9 6.3 140.9 15.8 137.4 L 296.3 36.1 C 303.90000000000003 33.4 311.90000000000003 32 320 32 C 328.09999999999997 32 336.1 33.4 343.7 36.1 L 624.2 137.4 C 633.7 140.8 640 149.9 640 160 C 640 170.1 633.7 179.1 624.2 182.6 L 343.7 283.9 C 336.09999999999997 286.59999999999997 328.09999999999997 288 320 288 C 311.90000000000003 288 303.9 286.6 296.3 283.9 z M 174.3 273.9 L 160.4 406.3 C 161.1 407.1 162.20000000000002 408.40000000000003 164.1 410 C 170.1 415.2 180.6 421.5 196 427.5 C 226.4 439.4 270.3 448 320 448 C 369.7 448 413.6 439.4 444.1 427.4 C 459.5 421.4 469.90000000000003 415.09999999999997 476 409.9 C 477.9 408.29999999999995 479 407.09999999999997 479.7 406.2 L 465.7 273.8 L 496.7 262.6 L 512 408 C 512 443.3 426 480 320 480 C 214 480 128 443.3 128 408 L 143.3 262.6 L 174.3 273.8 z M 480.5 405 C 480.5863639945226 404.94217603379826 480.61404446413565 404.82783824529616 480.56369104364603 404.73691584067444 C 480.51333762315636 404.64599343605266 480.4017338398433 404.60879217494835 480.30689766067854 404.65131804635195 C 480.2120614815138 404.69384391775554 480.1656031841029 404.801922430325 480.2 404.9 C 480.11363600547736 404.9578239662017 480.08595553586434 405.0721617547038 480.13630895635396 405.16308415932554 C 480.1866623768436 405.2540065639473 480.2982661601567 405.29120782505163 480.39310233932144 405.24868195364803 C 480.4879385184862 405.20615608224443 480.5343968158971 405.09807756967496 480.5 405 z M 159.5 405 C 159.49999998794573 405.035726567027 159.51905987763365 405.06873928150213 159.54999999025998 405.08660256849544 C 159.58094010288633 405.1044658554887 159.61905989711366 405.1044658554887 159.65000000974 405.08660256849544 C 159.68094012236634 405.06873928150213 159.70000001205426 405.035726567027 159.7 405 C 159.70000001205426 404.964273432973 159.68094012236634 404.93126071849787 159.65000000974 404.91339743150456 C 159.61905989711366 404.8955341445113 159.58094010288633 404.8955341445113 159.54999999025998 404.91339743150456 C 159.51905987763365 404.93126071849787 159.49999998794573 404.964273432973 159.5 405 z M 67 444.2 C 69.5 423.5 68.7 404.2 66.5 387.5 C 62.7 397.5 58.5 406.8 54.4 415.1 C 50.6 422.70000000000005 46.5 430.3 41.9 437.90000000000003 L 67 444.2 z" stroke-linecap="round" />
</g>
</svg>