<?xml version="1.0" encoding="UTF-8" standalone="no" ?>
<!DOCTYPE svg PUBLIC "-//W3C//DTD SVG 1.1//EN" "http://www.w3.org/Graphics/SVG/1.1/DTD/svg11.dtd">
<svg xmlns="http://www.w3.org/2000/svg" xmlns:xlink="http://www.w3.org/1999/xlink" version="1.1" width="1080" height="1080" viewBox="0 0 1080 1080" xml:space="preserve">
<desc>Created with Fabric.js 5.2.4</desc>
<defs>
</defs>
<g transform="matrix(1 0 0 1 540 540)" id="6c7934ce-223c-489b-93d3-fe4cb5db385f"  >
<rect style="stroke: none; stroke-width: 1; stroke-dasharray: none; stroke-linecap: butt; stroke-dashoffset: 0; stroke-linejoin: miter; stroke-miterlimit: 4; fill: rgb(255,255,255); fill-rule: nonzero; opacity: 1; visibility: hidden;" vector-effect="non-scaling-stroke"  x="-540" y="-540" rx="0" ry="0" width="1080" height="1080" />
</g>
<g transform="matrix(1 0 0 1 540 540)" id="936d8bef-06a1-4348-94d8-8d408c2bd3ec"  >
</g>
<g transform="matrix(2.11 0 0 2.11 540 540)"  >
<path style="stroke: none; stroke-width: 1; stroke-dasharray: none; stroke-linecap: butt; stroke-dashoffset: 0; stroke-linejoin: miter; stroke-miterlimit: 4; fill: rgb(0,0,0); fill-rule: nonzero; opacity: 1;"  transform=" translate(-256, -256)" d="M 480 448 C 480 465.7 465.7 480 448 480 L 224 480 L 224 496 C 224 501.5 223 506.9 221.3 512 L 448 512 C 483.3 512 512 483.3 512 448 L 512 163.9 C 512 151.20000000000002 506.9 139 497.9 130 L 382.1 14.1 C 373.1 5.1 360.90000000000003 0 348.20000000000005 0 L 192 0 C 156.7 0 128 28.7 128 64 L 128 135.1 L 128.1 135 C 129.6 134.3 132.1 133 134.7 132 C 142.89999999999998 128.6 151.6 127.4 160 128 L 160 64 C 160 46.3 174.3 32 192 32 L 320 32 L 320 144 C 320 170.5 341.5 192 368 192 L 480 192 L 480 448 z M 479.5 160 L 368 160 C 359.2 160 352 152.8 352 144 L 352 32.5 C 354.8 33.2 357.4 34.6 359.4 36.7 L 475.3 152.6 C 477.40000000000003 154.7 478.8 157.2 479.5 160 z M 69.8 358.5 L 67.7 373.7 L 69.8 358.5 L 59 357 L 57.5 346.2 C 56.1 335.8 50.6 326.4 42.4 320 L 22.8 345.2 L 42.4 320 L 33.8 313.3 L 37.9 303.2 C 41.9 293.5 41.9 282.59999999999997 37.9 272.9 L 33.8 262.79999999999995 L 42.4 256.09999999999997 L 22.8 230.7 L 9.3 241.2 C 0.8000000000000007 247.79999999999998 -2.299999999999999 259.3 1.8000000000000007 269.2 L 8.2 285 C 9 286.9 9 289.1 8.2 291 L 1.8 306.8 C -2.3 316.8 0.8 328.2 9.3 334.8 L 22.8 345.2 C 24.5 346.5 25.5 348.4 25.8 350.4 L 28.1 367.29999999999995 C 29.6 377.99999999999994 37.900000000000006 386.4 48.6 387.79999999999995 L 64 390 L 64 496 C 64 501.9 67.2 507.3 72.5 510.1 C 77.8 512.9000000000001 84 512.6 88.9 509.3 L 128 483.2 L 167.1 509.3 C 172 512.6 178.29999999999998 512.9 183.5 510.1 C 188.70000000000002 507.30000000000007 192 501.90000000000003 192 496 L 192 390 L 207.4 387.9 C 218.1 386.4 226.5 378.09999999999997 227.9 367.4 L 230.20000000000002 350.5 L 198.50000000000003 346.2 L 197 357 L 186.2 358.5 C 175.79999999999998 359.9 166.39999999999998 365.4 160 373.6 L 153.3 382.20000000000005 L 143.20000000000002 378.1 C 133.50000000000003 374.1 122.60000000000002 374.1 112.90000000000002 378.1 L 102.80000000000003 382.20000000000005 L 96 373.6 C 89.6 365.3 80.2 359.90000000000003 69.8 358.5 z M 22.799999999999997 230.8 L 42.4 256 C 50.7 249.6 56.099999999999994 240.2 57.5 229.8 L 29.3 226 L 57.5 229.8 L 59 219 L 69.8 217.5 C 80.2 216.1 89.6 210.6 96 202.4 L 102.7 193.8 L 112.8 197.9 C 122.5 201.9 133.4 201.9 143.1 197.9 L 131.79999999999998 170.3 L 143.1 197.9 L 153.2 193.8 L 159.89999999999998 202.4 C 166.29999999999998 210.70000000000002 175.7 216.1 186.09999999999997 217.5 L 197 219 L 198.5 229.8 C 199.9 240.20000000000002 205.4 249.60000000000002 213.6 256 L 222.2 262.7 L 218.1 272.8 C 214.1 282.5 214.1 293.40000000000003 218.1 303.1 L 222.2 313.20000000000005 L 213.6 319.90000000000003 C 205.29999999999998 326.3 199.9 335.70000000000005 198.5 346.1 L 230.2 350.40000000000003 C 230.5 348.3 231.6 346.40000000000003 233.2 345.20000000000005 L 246.7 334.80000000000007 C 255.2 328.20000000000005 258.3 316.70000000000005 254.2 306.80000000000007 L 247.8 291 C 247 289.1 247 286.9 247.8 285 L 254.3 269.2 C 258.40000000000003 259.2 255.3 247.79999999999998 246.8 241.2 L 233.3 230.79999999999998 C 231.60000000000002 229.49999999999997 230.60000000000002 227.6 230.3 225.6 L 228 208.7 C 226.5 198 218.2 189.6 207.5 188.2 L 190.6 185.89999999999998 C 188.5 185.59999999999997 186.6 184.49999999999997 185.4 182.89999999999998 L 175 169.39999999999998 C 168.4 160.89999999999998 156.9 157.79999999999998 147 161.89999999999998 L 131 168.2 C 129.1 169 126.9 169 125 168.2 L 109.2 161.7 C 99.2 157.6 87.80000000000001 160.7 81.2 169.2 L 70.7 182.8 C 69.4 184.5 67.5 185.5 65.5 185.8 L 48.6 188.10000000000002 C 37.900000000000006 189.60000000000002 29.5 197.90000000000003 28.1 208.60000000000002 L 25.8 225.50000000000003 C 25.5 227.60000000000002 24.400000000000002 229.50000000000003 22.8 230.70000000000002 z M 160 466.1 L 136.9 450.70000000000005 C 131.5 447.1 124.5 447.1 119.10000000000001 450.70000000000005 L 96 466.1 L 96 415.6 C 100.3 416.40000000000003 104.9 415.90000000000003 109.2 414.20000000000005 L 125 407.70000000000005 C 126.9 406.90000000000003 129.1 406.90000000000003 131 407.70000000000005 L 146.8 414.20000000000005 C 151.10000000000002 416.00000000000006 155.70000000000002 416.40000000000003 160 415.6 L 160 466.1 z" stroke-linecap="round" />
</g>
</svg>